<?xml version="1.0" encoding="UTF-8"?> <svg xmlns="http://www.w3.org/2000/svg" id="Layer_1" data-name="Layer 1" viewBox="0 0 512 512"><defs><style>.cls-1{fill:#468dce;}.cls-2{fill:#fff;}</style></defs><circle class="cls-1" cx="257.19" cy="256" r="254.53"></circle><path class="cls-2" d="M325.93,394.18a5.05,5.05,0,0,1-5-5.07V120.35L257.35,93.47,204,114.66V389.11a5,5,0,1,1-10,0v-278a5.08,5.08,0,0,1,3.15-4.73l58.43-23.18a4.8,4.8,0,0,1,3.77.07l68.51,29a5,5,0,0,1,3.09,4.66V389.11a5,5,0,0,1-5,5.07Z"></path><path class="cls-2" d="M257.42,394.18a5,5,0,0,1-5-5.07V88a5,5,0,1,1,10,0V389.11A5,5,0,0,1,257.42,394.18Z"></path><path class="cls-2" d="M406.92,394.18a5,5,0,0,1-5-5.07v-159l-49-28.81H325.93a5.08,5.08,0,0,1,0-10.15h28.25a5.62,5.62,0,0,1,2.54.69l52.74,30.93a5,5,0,0,1,2.54,4.39V389a5.13,5.13,0,0,1-5.08,5.14Z"></path><path class="cls-2" d="M354.25,394.18a5,5,0,0,1-5-5.07V196.27a5,5,0,1,1,10,0V389.11A5,5,0,0,1,354.25,394.18Z"></path><path class="cls-2" d="M95.92,394.18a5.05,5.05,0,0,1-5-5.07V231.52a5.06,5.06,0,0,1,5-5.08h103a5.08,5.08,0,0,1,0,10.15h-98V389.11A5,5,0,0,1,95.92,394.18Z"></path><path class="cls-2" d="M123.56,256h-10.7a5.08,5.08,0,0,1,0-10.15h10.63a5,5,0,0,1,5,5.07A4.94,4.94,0,0,1,123.56,256Z"></path><path class="cls-2" d="M152.77,256H142.14a5.08,5.08,0,0,1,0-10.15h10.7a5.05,5.05,0,0,1,5,5.07A5.11,5.11,0,0,1,152.77,256Z"></path><path class="cls-2" d="M182,256H171.36a5.08,5.08,0,0,1,0-10.15H182a5,5,0,0,1,5,5.07A5,5,0,0,1,182,256Z"></path><path class="cls-2" d="M123.56,279.8h-10.7a5.08,5.08,0,0,1,0-10.15h10.63a5,5,0,0,1,5,5.07A5,5,0,0,1,123.56,279.8Z"></path><path class="cls-2" d="M152.77,279.8H142.14a5.08,5.08,0,0,1,0-10.15h10.7a5.05,5.05,0,0,1,5,5.07A5.12,5.12,0,0,1,152.77,279.8Z"></path><path class="cls-2" d="M182,279.8H171.36a5.08,5.08,0,0,1,0-10.15H182a5,5,0,0,1,5,5.07A5,5,0,0,1,182,279.8Z"></path><path class="cls-2" d="M123.56,303.52h-10.7a5.08,5.08,0,0,1,0-10.15h10.63a5.05,5.05,0,0,1,5,5.08A5,5,0,0,1,123.56,303.52Z"></path><path class="cls-2" d="M152.77,303.52H142.14a5.08,5.08,0,0,1,0-10.15h10.7a5.08,5.08,0,0,1-.07,10.15Z"></path><path class="cls-2" d="M182,303.52H171.36a5.08,5.08,0,0,1,0-10.15H182a5.05,5.05,0,0,1,5,5.08A5,5,0,0,1,182,303.52Z"></path><path class="cls-2" d="M123.56,327.25h-10.7a5.08,5.08,0,0,1,0-10.15h10.63a5.05,5.05,0,0,1,5,5.08A4.94,4.94,0,0,1,123.56,327.25Z"></path><path class="cls-2" d="M152.77,327.25H142.14a5.08,5.08,0,0,1,0-10.15h10.7a5.06,5.06,0,0,1,5,5.08A5.11,5.11,0,0,1,152.77,327.25Z"></path><path class="cls-2" d="M182,327.25H171.36a5.08,5.08,0,0,1,0-10.15H182a5.05,5.05,0,0,1,5,5.08A5,5,0,0,1,182,327.25Z"></path><path class="cls-2" d="M123.56,351h-10.7a5.08,5.08,0,0,1,0-10.15h10.63a5,5,0,0,1,5,5.07A4.94,4.94,0,0,1,123.56,351Z"></path><path class="cls-2" d="M152.77,351H142.14a5.08,5.08,0,0,1,0-10.15h10.7a5.05,5.05,0,0,1,5,5.07A5.11,5.11,0,0,1,152.77,351Z"></path><path class="cls-2" d="M182,351H171.36a5.08,5.08,0,0,1,0-10.15H182a5,5,0,0,1,5,5.07A5,5,0,0,1,182,351Z"></path><path class="cls-2" d="M123.56,374.71h-10.7a5.08,5.08,0,0,1,0-10.15h10.63a5.08,5.08,0,0,1,.07,10.15Z"></path><path class="cls-2" d="M152.77,374.71H142.14a5.08,5.08,0,0,1,0-10.15h10.7a5.08,5.08,0,0,1-.07,10.15Z"></path><path class="cls-2" d="M182,374.71H171.36a5.08,5.08,0,0,1,0-10.15H182a5.08,5.08,0,0,1,0,10.15Z"></path><path class="cls-2" d="M239.73,137.5a5.06,5.06,0,0,1-5-5.08v-9.53a5,5,0,1,1,10,0v9.53A5,5,0,0,1,239.73,137.5Z"></path><path class="cls-2" d="M216.89,143.39a5,5,0,0,1-5-5.07v-9.53a5,5,0,1,1,10,0v9.53A5.05,5.05,0,0,1,216.89,143.39Z"></path><path class="cls-2" d="M239.73,175.56a5.06,5.06,0,0,1-5-5.08V161a5,5,0,1,1,10,0v9.53A5,5,0,0,1,239.73,175.56Z"></path><path class="cls-2" d="M216.89,181.45a5,5,0,0,1-5-5.07v-9.53a5,5,0,1,1,10,0v9.53A5.05,5.05,0,0,1,216.89,181.45Z"></path><path class="cls-2" d="M239.73,213.62a5.06,5.06,0,0,1-5-5.08v-9.6a5,5,0,1,1,10,0v9.6A5,5,0,0,1,239.73,213.62Z"></path><path class="cls-2" d="M216.89,219.52a5.05,5.05,0,0,1-5-5.08v-9.53a5,5,0,1,1,10,0v9.53A5.06,5.06,0,0,1,216.89,219.52Z"></path><path class="cls-2" d="M239.73,251.68a5.05,5.05,0,0,1-5-5.08v-9.53a5,5,0,1,1,10,0v9.53A5,5,0,0,1,239.73,251.68Z"></path><path class="cls-2" d="M216.89,257.58a5.05,5.05,0,0,1-5-5.08V243a5,5,0,1,1,10,0v9.53A5.06,5.06,0,0,1,216.89,257.58Z"></path><path class="cls-2" d="M239.73,289.74a5.05,5.05,0,0,1-5-5.08v-9.53a5,5,0,1,1,10,0v9.53A5,5,0,0,1,239.73,289.74Z"></path><path class="cls-2" d="M216.89,295.64a5.05,5.05,0,0,1-5-5.08V281a5,5,0,1,1,10,0v9.53A5.1,5.1,0,0,1,216.89,295.64Z"></path><path class="cls-2" d="M239.73,327.8a5.05,5.05,0,0,1-5-5.07v-9.54a5,5,0,1,1,10,0v9.54A5,5,0,0,1,239.73,327.8Z"></path><path class="cls-2" d="M216.89,333.7a5.05,5.05,0,0,1-5-5.08v-9.53a5,5,0,1,1,10,0v9.53A5.06,5.06,0,0,1,216.89,333.7Z"></path><path class="cls-2" d="M239.73,365.86a5.05,5.05,0,0,1-5-5.07v-9.54a5,5,0,1,1,10,0v9.54A5,5,0,0,1,239.73,365.86Z"></path><path class="cls-2" d="M216.89,371.69a5,5,0,0,1-5-5.07v-9.54a5,5,0,1,1,10,0v9.54a5.05,5.05,0,0,1-5,5.07Z"></path><path class="cls-2" d="M274.36,132.7a5.06,5.06,0,0,1-5-5.08v-9.53a5,5,0,1,1,10,0v9.53A5.06,5.06,0,0,1,274.36,132.7Z"></path><path class="cls-2" d="M291.3,139.14a5.05,5.05,0,0,1-5-5.07v-9.53a5,5,0,1,1,10,0v9.53A5.05,5.05,0,0,1,291.3,139.14Z"></path><path class="cls-2" d="M308.24,145.59a5,5,0,0,1-5-5.08V131a5,5,0,1,1,10,0v9.53A5,5,0,0,1,308.24,145.59Z"></path><path class="cls-2" d="M274.36,170.62a5.05,5.05,0,0,1-5-5.08V156a5,5,0,1,1,10,0v9.53A5.05,5.05,0,0,1,274.36,170.62Z"></path><path class="cls-2" d="M291.3,177.07a5.06,5.06,0,0,1-5-5.08v-9.53a5,5,0,1,1,10,0V172A5.06,5.06,0,0,1,291.3,177.07Z"></path><path class="cls-2" d="M308.24,183.51a5,5,0,0,1-5-5.07v-9.53a5,5,0,1,1,10,0v9.53A5,5,0,0,1,308.24,183.51Z"></path><path class="cls-2" d="M274.36,208.54a5.05,5.05,0,0,1-5-5.07v-9.6a5,5,0,1,1,10,0v9.53a5,5,0,0,1-5,5.14Z"></path><path class="cls-2" d="M291.3,215a5.05,5.05,0,0,1-5-5.08v-9.53a5,5,0,1,1,10,0v9.53A5.05,5.05,0,0,1,291.3,215Z"></path><path class="cls-2" d="M308.24,221.44a5.05,5.05,0,0,1-5-5.08v-9.53a5,5,0,1,1,10,0v9.53A5.05,5.05,0,0,1,308.24,221.44Z"></path><path class="cls-2" d="M274.36,246.47a5.06,5.06,0,0,1-5-5.08v-9.53a5,5,0,1,1,10,0v9.53A5.06,5.06,0,0,1,274.36,246.47Z"></path><path class="cls-2" d="M291.3,252.91a5.05,5.05,0,0,1-5-5.07v-9.53a5,5,0,1,1,10,0v9.53A5.05,5.05,0,0,1,291.3,252.91Z"></path><path class="cls-2" d="M308.24,259.36a5,5,0,0,1-5-5.08v-9.53a5,5,0,1,1,10,0v9.53A5,5,0,0,1,308.24,259.36Z"></path><path class="cls-2" d="M274.36,284.39a5.05,5.05,0,0,1-5-5.07v-9.54a5,5,0,1,1,10,0v9.54A5.05,5.05,0,0,1,274.36,284.39Z"></path><path class="cls-2" d="M291.3,290.84a5.06,5.06,0,0,1-5-5.08v-9.53a5,5,0,1,1,10,0v9.53A5.06,5.06,0,0,1,291.3,290.84Z"></path><path class="cls-2" d="M308.24,297.28a5,5,0,0,1-5-5.07v-9.53a5,5,0,1,1,10,0v9.53A5,5,0,0,1,308.24,297.28Z"></path><path class="cls-2" d="M274.36,322.31a5.05,5.05,0,0,1-5-5.07v-9.53a5,5,0,1,1,10,0v9.53A5.05,5.05,0,0,1,274.36,322.31Z"></path><path class="cls-2" d="M291.3,328.76a5.05,5.05,0,0,1-5-5.07v-9.54a5,5,0,1,1,10,0v9.54A5.05,5.05,0,0,1,291.3,328.76Z"></path><path class="cls-2" d="M308.24,335.21a5.05,5.05,0,0,1-5-5.08V320.6a5,5,0,1,1,10,0v9.53A5.05,5.05,0,0,1,308.24,335.21Z"></path><path class="cls-2" d="M274.36,360.24a5.06,5.06,0,0,1-5-5.08v-9.53a5,5,0,1,1,10,0v9.53A5.06,5.06,0,0,1,274.36,360.24Z"></path><path class="cls-2" d="M291.3,366.68a5.05,5.05,0,0,1-5-5.07v-9.53a5,5,0,1,1,10,0v9.53A5.05,5.05,0,0,1,291.3,366.68Z"></path><path class="cls-2" d="M308.24,373.13a5,5,0,0,1-5-5.07v-9.54a5,5,0,1,1,10,0v9.54A5,5,0,0,1,308.24,373.13Z"></path><path class="cls-2" d="M371.67,240.23a5.05,5.05,0,0,1-5-5.08V230a5,5,0,1,1,10,0v5.14A5.05,5.05,0,0,1,371.67,240.23Z"></path><path class="cls-2" d="M388.54,250.92a5,5,0,0,1-5-5.07v-5.14a5,5,0,1,1,10,0v5.14A5,5,0,0,1,388.54,250.92Z"></path><path class="cls-2" d="M371.67,265.19a5,5,0,0,1-5-5.08V255a5,5,0,1,1,10,0v5.14a5,5,0,0,1-5,5.08Z"></path><path class="cls-2" d="M388.54,275.89a5.05,5.05,0,0,1-5-5.08v-5.07a5,5,0,1,1,10,0v5.14A5,5,0,0,1,388.54,275.89Z"></path><path class="cls-2" d="M371.67,290.15a5,5,0,0,1-5-5.07V280a5,5,0,1,1,10,0v5.14A5,5,0,0,1,371.67,290.15Z"></path><path class="cls-2" d="M388.54,300.92a5.05,5.05,0,0,1-5-5.08V290.7a5,5,0,1,1,10,0v5.14A5,5,0,0,1,388.54,300.92Z"></path><path class="cls-2" d="M371.67,315.18a5,5,0,0,1-5-5.07V305a5,5,0,1,1,10,0v5.15A5,5,0,0,1,371.67,315.18Z"></path><path class="cls-2" d="M388.54,325.88a5,5,0,0,1-5-5.07v-5.15a5,5,0,1,1,10,0v5.15A5,5,0,0,1,388.54,325.88Z"></path><path class="cls-2" d="M371.67,340.14a5,5,0,0,1-5-5.07V330a5,5,0,1,1,10,0v5.08A5,5,0,0,1,371.67,340.14Z"></path><path class="cls-2" d="M388.54,350.84a5,5,0,0,1-5-5.07v-5.15a5,5,0,1,1,10,0v5.15A5,5,0,0,1,388.54,350.84Z"></path><path class="cls-2" d="M371.67,365.11a5.05,5.05,0,0,1-5-5.08v-5.14a5,5,0,1,1,10,0V360A5.05,5.05,0,0,1,371.67,365.11Z"></path><path class="cls-2" d="M388.54,375.87a5,5,0,0,1-5-5.07v-5.14a5,5,0,1,1,10,0v5.14A5,5,0,0,1,388.54,375.87Z"></path><path class="cls-2" d="M422,394.11H80.9a5.07,5.07,0,0,1,0-10.14H422a5.07,5.07,0,0,1,0,10.14Z"></path></svg> 